<?xml version="1.0" encoding="utf-8"?>
<!-- Generator: Adobe Illustrator 19.0.0, SVG Export Plug-In . SVG Version: 6.00 Build 0)  -->
<svg version="1.1" id="Layer_1" xmlns="http://www.w3.org/2000/svg" xmlns:xlink="http://www.w3.org/1999/xlink" x="0px" y="0px"
	 viewBox="-344 -88.7 1309.1 2177.7" style="enable-background:new -344 -88.7 1309.1 2177.7;" xml:space="preserve">
<style type="text/css">
	.st0{fill:#F2F2F2;}
</style>
<g id="BG">
</g>
<g id="Face">
</g>
<g id="XMLID_37_">
</g>
<g id="XMLID_62_">
</g>
<g id="XMLID_173_">
</g>
<g id="XMLID_174_">
</g>
<g id="XMLID_175_">
</g>
<path id="Secondary_Light_1_" class="st0" d="M205,2089c-36.5,0-70.6-11-101.3-32.6c-22.8-16-40.3-35.4-55-52.3l-41.5-47.9
	c-19.6-22.7-41.9-48.3-61.4-77.9c-25.8-39.2-41.5-77.2-47.9-116.2c-2.3-14.2-3.2-26.3-3.9-36.1c-1-13.6-1.4-17.2-3.1-21.4
	c-8.4-20.4-18.4-37.5-30.4-52.4c-1.9-2.4-3.9-4.7-5.8-7.1c-18.6-22.6-41.6-50.8-54.9-90.2c-8.4-25.1-10.6-48.2-12.4-66.9
	c-0.4-3.8-0.7-7.4-1.1-10.8c-0.7-6.6-1.5-10.2-1.9-12c-14.4-20.3-24.5-44-30.1-70.4c-4.1-19.3-5.7-39.8-5-62.7
	c0.3-11.5,1.2-22.6,1.9-32.3c0.8-10.5,1.6-20.4,1.5-28.6c-0.7-4-4.6-14.3-7.2-21.2l-1.1-3c-17.6-46.5-27.7-91.2-37.6-134.5
	c-2.8-12.2-5.6-24.8-8.6-37.1c-6.4-26.5-12.7-55.3-15.5-85.9c-3.6-39.8-2.6-77.5-1.5-114.1c0.9-32,1.8-62.3-0.7-90.7
	c-1.6-18.1-5.7-38-10.1-59.1c-6.6-33.2-14.5-71-14.4-112.2c0.1-77.7,18.7-159,38.7-235.2c12.7-48.4,29.9-94.7,51.1-137.7
	c3-6.1,6.1-12.1,9-17.8c1.4-2.7,2.7-5.2,3.9-7.3c18.9-35.2,41.6-69.2,65.7-98.3c21.9-26.4,46.5-50.4,79.8-77.9
	c26.7-22,56.1-41,92.6-59.8C27.6-36.5,61.1-50.1,96.3-61c8.7-2.7,17.5-5.2,26.3-7.5c51.2-13.4,104.7-20.2,159.1-20.2
	c24.7,0,49.8,1.4,74.6,4.2c37.3,4.2,74.5,11.6,110.6,22c33.7,9.7,73,22.4,109.1,42.9c2.7,1.5,5.4,3,8.1,4.6
	c24.3,13.7,49.4,27.8,74.9,46.6c28.1,20.7,56.4,46.2,84.1,75.9c57.3,61.2,94.1,132.3,126.6,195c31,59.9,50.2,127,56.9,199.4
	c1.6,17,2.5,34.9,2.9,53.4c0.2,12.2-0.5,23-1.2,31.7c-0.4,5-0.7,9.2-0.7,12.6l-1.1,71.5c0,0.3,0,0.7,0,1c2.5,5.1,5.3,10.7,8.1,17.1
	c34,78.2,32.5,160.8,28.4,216.1l-0.2,3.4c-0.6,7.7-1.1,15.6-2,24c-0.3,3.2-0.6,6.6-0.9,10.3c-0.3,3.4-0.5,6.9-0.9,10.7
	c-3.2,35.6-14.9,69-34.6,99.1c-11.3,17.2-24.2,31.9-36.4,44.2c0.7,5.9,1.1,12,1.1,18.1c0.3,23.4-5,42.2-9.9,56.2
	c0.6,4.2,1,8,1.3,11.2c0.2,1.9,0.4,3.7,0.6,5.1l0.7,5.8v0.5c0,0.2,0.1,0.4,0.1,0.6c0.4,1.9,0.9,4.1,1.4,6.6c2,10,4.5,20,7.3,29.8
	c1.4,4.9,2.9,9.8,4.5,14.6c0.5,1.6,1,3,1.4,4.4c0.8,0.8,1.7,1.5,2.5,2.2c4.4,3.9,9.8,8.8,15.6,14.8c23,23.9,37.5,54.2,43.1,90
	c5.5,34.9,0.5,69.7-14.2,100.7c-22.3,46.9-60.1,73.8-87.8,93.4c-1.8,1.3-3.5,2.5-5.3,3.8c-10.4,7.4-16.7,12.6-18.7,15.2
	c-2.1,3.4-4.9,9.2-7.9,15.4c-4.4,9.2-10,20.7-17.3,32.6c-8.8,14.2-18.3,26-26,35.5c-5.1,6.3-10.8,13.4-12.8,17.2
	c-7.7,14.3-14.4,31.8-21.5,50.3c-8.4,21.9-18,46.7-31.2,71.4c-28.4,53.2-69.3,99.2-118.2,133.2c-47,32.6-98.3,52.3-143.5,69.6
	c-14.8,5.7-28.8,11-42.3,16.7c-20.6,8.6-41,18.2-60.6,28.7c-3.3,1.7-6.5,3.5-9.8,5.3c-27,14.6-60.5,32.8-101.7,40.1
	C227.6,2088,216.1,2089,205,2089z"/>
<g id="Primary_Dark_1_">
	<path id="XMLID_183_" d="M-222.4,981c2.2,23.8,7.1,46.9,13.2,72.3c13.2,54.9,22.8,107.6,42.7,160.3c6.9,18.1,14.2,36.5,14.4,56
		c0.2,21.9-2.9,43.6-3.5,65.4c-0.8,26.8,2.7,55.2,18.7,76.8c11.7,15.7,15.6,35.7,17.8,55.1c2.1,19.4,2.8,39.3,9.1,57.8
		c8.8,26.1,27.6,46.9,44.5,67.9c18.7,23.1,32.9,48.3,44.3,75.8c11.8,28.6,8.2,49.5,12.9,78.5c9.3,57.2,50.6,104.9,87.3,147.2
		c13.8,16,27.6,31.9,41.5,47.9c28.5,32.9,54.5,58.9,101.8,50.4c30-5.4,56.7-21.4,83.6-35.7c22.4-11.9,45.3-22.8,68.7-32.5
		c57-23.8,117.5-41.4,168.2-76.6c36.9-25.6,67.4-60.3,88.6-99.9c20.9-39.1,31.8-82.8,52.8-121.9c11.3-21,29.2-37.4,41.7-57.7
		c9.8-15.8,16-33.5,26-49.2c10.8-17,27.2-29.6,43.4-41.3c23.9-17.1,50-34.2,62.6-60.8c6.6-14,8.5-30,6.1-45.3
		c-2.3-14.6-7.3-28-17.7-38.8c-7.5-7.7-16.2-14.2-23.3-22.2c-5.1-5.7-9.3-12.1-12.5-19c-3.3-7.1-4.2-14.8-6.8-22
		c-0.5,9.3,0.5,18.6-1.2,28c-2.1,11.9-7.5,22.1-14,32.1c-12.2,18.8-27.9,35.1-40.2,54c-12.8,19.7-23.7,40.7-32.5,62.6
		c-9.9,24.7-17,50.6-28.2,74.7c-13.4,28.8-33.6,50.8-61.2,66.4c-18.3,10.3-37.8,18.8-54.5,31.5c-14.1,10.7-25.8,24.1-38.8,36
		c-39.7,36.5-91.7,57.8-144.1,68c-17.2,3.4-35.5,6.7-52.9,8.1c-2,0.2-4,0.4-6,0.5c4.9-0.4,27.6-5.1,32.3-6.4
		c18.2-5,36.6-8.8,54.4-15c18.4-6.5,36.3-14.5,53.1-24.3c16.3-9.5,31.5-20.7,45.4-33.4c0.3-0.3,2.3-1.7,2.3-2.1
		c20.5-19.2,37.9-41.4,58.4-60.6c21.3-19.9,48.3-31.1,69.2-51.4c17.4-16.9,29.3-38.9,37.3-61.8c8.2-23.5,11-48.3,17.9-72
		c6.7-23,13.6-44.2,27.1-64.3c21.5-32,55.7-55.1,61.7-95.9c2.4-16.1,0.5-32.5-2.2-48.4c-2.4-14-6.7-30.9-1.6-44.7
		c4.3-11.7,8.9-22.3,8.7-35.1c-0.1-12.9-3.9-28.8-12.6-38.6c-2.5,26.4-26.3,45.6-42.5,64.2c-17.5,20.2-32.6,43.6-40.6,69.2
		c-1,3-2.2,6.7-2.4,9.9c2.2-41.9,14.9-83.6,42.7-115.6c18.4-21.2,45.4-42.1,66.4-60.8c31.1-27.8,55.4-55.9,59.3-99.4
		c0.7-7.3,1.1-14.4,1.8-21.7c0.8-8.3,1.4-16.7,2-25c4.2-57.2,2.3-117.9-20.8-171.3c-4.1-9.5-9.2-18.5-13.5-28
		c-4.2-9.3-2.6-19.3-2.4-29.4c0.4-23.8,0.7-47.6,1.1-71.5c0.2-13.9,2.2-27,1.9-41.1c-0.3-15.5-1.1-31-2.5-46.5
		c-5.3-57.3-20.1-113.3-46.6-164.5c-31.1-60.1-62.8-121.8-109.2-171.8c-16.8-18.1-35.7-34.6-57.1-47c-22.7-13.2-45.4-17.9-71.2-20.5
		c-29.1-2.9-58.8,0.3-86.7,9.1c-24.3,7.6-57.9,21.1-74.7,41.3c32.7-39.2,82.2-74.2,134.7-76.8c12.5-0.6,25.5,2,37.5,5.5
		c11.8,3.4,23.3,8.4,33.8,14.8c-2.1-1.3-4.1-3-6.2-4.4c-2.2-1.5-4.4-2.9-6.6-4.3c-4.4-2.9-8.9-5.7-13.3-8.5
		c-8.7-5.4-17.6-10.6-26.7-15.3c-3.9-2-7.8-3.9-11.7-5.9c-23.3-11.5-47.5-22-72.4-29.5c-0.5-0.2-1.1-0.3-1.6-0.5
		c-25.9-7.7-52.2-13.8-78.9-18.2c-1.4-0.2-2.8-0.6-4.2-0.8c-20.4-3.3-41-5.5-61.7-6.6c-5-0.3-9.9-0.5-14.9-0.6
		C237,4.4,179.4,12.4,124.7,29.4c-50.6,15.7-100.5,39-143.5,70c-32.5,23.5-60.3,53.7-74.2,91.7c-3.9,10.7-6.9,21.7-9.1,32.9
		c-1.5,7.7-2.8,15.7-3.2,23.6c-0.4,8.1-0.6,16.3-0.4,24.5c0,1.9,0.1,3.8,0.2,5.6c0.1,1.8,0.3,3.7,0.1,5.5c0,0.3-0.1,0.6,0,0.9
		c-2.7-11.6-5.4-23.3-7.1-35.2c-1.7-11.6-2.5-23.4-1.6-35.1c0.8-9.9,2.9-20.9,6.7-30.1c-2.7,3.3-5.3,6.8-8,10.3
		c-2.4,3-4.7,6.1-7,9.2c-17.7,24.6-32.9,51.7-46.3,78.9c-18.9,38.2-33.6,78.5-44.4,119.7c-17.8,67.1-35.8,142.9-35.9,211.7
		c-0.1,55.2,19.6,108.2,24.4,163.1C-218.6,844.9-228.5,913.3-222.4,981z"/>
</g>
<path id="Light_2_" class="st0" d="M429.6,610.9c-52.1-4.1-104.2-3.5-156.5-2.4c-11.5,0.2-22.9,0.5-34.3,1
	c-21.1,0.8-42.5,3.1-63.6,3.1c-90.3,5.3-182.1,6.6-271.5,18.5c-19.4,2.6-40.2,7.4-53,22.3c-49.3,57.1-1.5,201.9,86.3,179.8
	c20.5-5.2,34.1-19,48.3-33.5c15.8-16,31.7-32.1,47.5-48.1c13.2-13.4,28.8-28,46.3-35.5c28.1-12,73.7-9.7,102.1-0.7
	c13.8,4.4,26.7,11.2,39.5,18.1c55.5,29.7,104.3,74.2,166.5,90c81.7,20.7,180.2-21.5,178.3-116.6c-0.5-22.2-8.3-44.8-23.4-61.2
	c-16.1-17.5-41.3-24.6-64-28.8c-11.7-2.2-23.5-3.5-35.3-4.7C438.2,611.6,433.9,611.3,429.6,610.9z"/>
</svg>
